/* XPM */
static char * gerald_xpm[] = {
"22 44 11 1",
" 	c None",
".	c #338833",
"+	c #0BFF3F",
"@	c #A5DAFF",
"#	c #FFFFFF",
"$	c #000000",
"%	c #9D00EF",
"&	c #D4D0D0",
"*	c #3E00EF",
"=	c #009CFF",
"-	c #00FFFF",
"         ......       ",
"       ...++++..      ",
"      ..++++++@@@     ",
"     ..+++++@@###     ",
"    ..+@@@@@##@@@     ",
"    .@@#####@@++.     ",
"    @##@@@@@@+++.     ",
"   @#@@+++++++++.     ",
"   #@+..+++++$++.     ",
"   @++.+++++$$++..    ",
"  ..++.++++++++++..   ",
"  .+++..++++++++...   ",
"  ..++++++++++++.     ",
"   .++++++++++++.     ",
"    ..++++++++++.  ...",
"     ...++++++...  .+.",
"       ........    .+.",
"         .+.       .+.",
".......##.+.##......+.",
".++++++##.+.##+++++++.",
".+.....##.$.##........",
".+.    #######        ",
".+.    ##%&*##        ",
"...   ####%####       ",
"      ###*&%###       ",
"      ###*&%###       ",
"      ####%####       ",
"      ###%&*###       ",
"       #######        ",
"       =======        ",
"       =-= =-=        ",
"       =-= =-=        ",
"       =-= =-=        ",
"       =-= =-=        ",
"       =-= =-=        ",
"       =-= =-=        ",
"       =-= =-=        ",
"       =-= =-=        ",
"       =-= =-=        ",
"       =-= =-=        ",
"       =-= =-=        ",
"      $$$$ $$$$       ",
"     $$$$$ $$$$$      ",
"     $$$$$ $$$$$      "};
